<mxfile host="app.diagrams.net" modified="2021-12-17T06:26:44.642Z" agent="5.0 (Macintosh; Intel Mac OS X 10_15_7) AppleWebKit/537.36 (KHTML, like Gecko) Chrome/96.0.4664.93 Safari/537.36" etag="zrATuxpTHhi5OtTgjoIY" version="15.9.4" type="github" pages="4">
  <diagram id="5nLaAhezhdhvWa82QkOT" name="Page-1">
    <mxGraphModel dx="1298" dy="833" grid="1" gridSize="10" guides="1" tooltips="1" connect="1" arrows="1" fold="1" page="1" pageScale="1" pageWidth="827" pageHeight="1169" math="0" shadow="0">
      <root>
        <mxCell id="0" />
        <mxCell id="1" parent="0" />
        <mxCell id="pOj2W8zxsv_hfWx-8Iqs-2" value="" style="endArrow=none;html=1;rounded=0;" edge="1" parent="1">
          <mxGeometry width="50" height="50" relative="1" as="geometry">
            <mxPoint x="660" y="408.78787878787875" as="sourcePoint" />
            <mxPoint x="670" y="410" as="targetPoint" />
          </mxGeometry>
        </mxCell>
        <mxCell id="pOj2W8zxsv_hfWx-8Iqs-3" value="" style="rounded=0;whiteSpace=wrap;html=1;fillColor=#dae8fc;strokeColor=#6c8ebf;" vertex="1" parent="1">
          <mxGeometry x="160" y="120" width="240" height="120" as="geometry" />
        </mxCell>
        <mxCell id="pOj2W8zxsv_hfWx-8Iqs-4" value="" style="endArrow=none;html=1;rounded=0;" edge="1" parent="1">
          <mxGeometry width="50" height="50" relative="1" as="geometry">
            <mxPoint x="160" y="160" as="sourcePoint" />
            <mxPoint x="400" y="161" as="targetPoint" />
          </mxGeometry>
        </mxCell>
        <mxCell id="pOj2W8zxsv_hfWx-8Iqs-5" value="" style="endArrow=none;html=1;rounded=0;" edge="1" parent="1">
          <mxGeometry width="50" height="50" relative="1" as="geometry">
            <mxPoint x="160" y="200" as="sourcePoint" />
            <mxPoint x="400" y="201" as="targetPoint" />
          </mxGeometry>
        </mxCell>
        <mxCell id="pOj2W8zxsv_hfWx-8Iqs-6" value="Tail (byte offset)" style="text;html=1;strokeColor=none;fillColor=none;align=center;verticalAlign=middle;whiteSpace=wrap;rounded=0;" vertex="1" parent="1">
          <mxGeometry x="170" y="200" width="220" height="40" as="geometry" />
        </mxCell>
        <mxCell id="pOj2W8zxsv_hfWx-8Iqs-7" value="Head (bytes offset)" style="text;html=1;strokeColor=none;fillColor=none;align=center;verticalAlign=middle;whiteSpace=wrap;rounded=0;" vertex="1" parent="1">
          <mxGeometry x="170" y="160" width="210" height="40" as="geometry" />
        </mxCell>
        <mxCell id="pOj2W8zxsv_hfWx-8Iqs-8" value="Max Size (bytes)" style="text;html=1;strokeColor=none;fillColor=none;align=center;verticalAlign=middle;whiteSpace=wrap;rounded=0;" vertex="1" parent="1">
          <mxGeometry x="180" y="120" width="200" height="40" as="geometry" />
        </mxCell>
        <mxCell id="pOj2W8zxsv_hfWx-8Iqs-9" value="" style="endArrow=classic;startArrow=classic;html=1;rounded=0;" edge="1" parent="1">
          <mxGeometry width="50" height="50" relative="1" as="geometry">
            <mxPoint x="430" y="240" as="sourcePoint" />
            <mxPoint x="430" y="120" as="targetPoint" />
          </mxGeometry>
        </mxCell>
        <mxCell id="pOj2W8zxsv_hfWx-8Iqs-11" value="64 Bytes" style="text;html=1;strokeColor=none;fillColor=none;align=center;verticalAlign=middle;whiteSpace=wrap;rounded=0;" vertex="1" parent="1">
          <mxGeometry x="430" y="165" width="60" height="30" as="geometry" />
        </mxCell>
        <mxCell id="pOj2W8zxsv_hfWx-8Iqs-12" value="" style="rounded=0;whiteSpace=wrap;html=1;" vertex="1" parent="1">
          <mxGeometry x="160" y="600" width="240" height="120" as="geometry" />
        </mxCell>
        <mxCell id="pOj2W8zxsv_hfWx-8Iqs-13" value="" style="endArrow=none;html=1;rounded=0;" edge="1" parent="1">
          <mxGeometry width="50" height="50" relative="1" as="geometry">
            <mxPoint x="160" y="640" as="sourcePoint" />
            <mxPoint x="400" y="641" as="targetPoint" />
          </mxGeometry>
        </mxCell>
        <mxCell id="pOj2W8zxsv_hfWx-8Iqs-14" value="" style="endArrow=none;html=1;rounded=0;" edge="1" parent="1">
          <mxGeometry width="50" height="50" relative="1" as="geometry">
            <mxPoint x="160" y="680" as="sourcePoint" />
            <mxPoint x="400" y="681" as="targetPoint" />
          </mxGeometry>
        </mxCell>
        <mxCell id="pOj2W8zxsv_hfWx-8Iqs-15" value="Values (remaining bytes)" style="text;html=1;strokeColor=none;fillColor=none;align=center;verticalAlign=middle;whiteSpace=wrap;rounded=0;" vertex="1" parent="1">
          <mxGeometry x="170" y="680" width="220" height="40" as="geometry" />
        </mxCell>
        <mxCell id="pOj2W8zxsv_hfWx-8Iqs-16" value="Key (multiple of 8 bytes, fixed size)" style="text;html=1;strokeColor=none;fillColor=none;align=center;verticalAlign=middle;whiteSpace=wrap;rounded=0;" vertex="1" parent="1">
          <mxGeometry x="170" y="640" width="210" height="40" as="geometry" />
        </mxCell>
        <mxCell id="pOj2W8zxsv_hfWx-8Iqs-17" value="Valid (8 bytes)" style="text;html=1;strokeColor=none;fillColor=none;align=center;verticalAlign=middle;whiteSpace=wrap;rounded=0;" vertex="1" parent="1">
          <mxGeometry x="180" y="600" width="200" height="40" as="geometry" />
        </mxCell>
        <mxCell id="pOj2W8zxsv_hfWx-8Iqs-18" value="" style="endArrow=classic;startArrow=classic;html=1;rounded=0;" edge="1" parent="1">
          <mxGeometry width="50" height="50" relative="1" as="geometry">
            <mxPoint x="430" y="720" as="sourcePoint" />
            <mxPoint x="430" y="600" as="targetPoint" />
          </mxGeometry>
        </mxCell>
        <mxCell id="pOj2W8zxsv_hfWx-8Iqs-19" value="64*n Bytes" style="text;html=1;strokeColor=none;fillColor=none;align=center;verticalAlign=middle;whiteSpace=wrap;rounded=0;" vertex="1" parent="1">
          <mxGeometry x="430" y="645" width="90" height="30" as="geometry" />
        </mxCell>
        <mxCell id="pOj2W8zxsv_hfWx-8Iqs-29" value="" style="group" vertex="1" connectable="0" parent="1">
          <mxGeometry x="160" y="240" width="360" height="120" as="geometry" />
        </mxCell>
        <mxCell id="pOj2W8zxsv_hfWx-8Iqs-21" value="" style="rounded=0;whiteSpace=wrap;html=1;fillColor=#fff2cc;strokeColor=#d6b656;" vertex="1" parent="pOj2W8zxsv_hfWx-8Iqs-29">
          <mxGeometry width="240" height="120" as="geometry" />
        </mxCell>
        <mxCell id="pOj2W8zxsv_hfWx-8Iqs-22" value="" style="endArrow=none;html=1;rounded=0;" edge="1" parent="pOj2W8zxsv_hfWx-8Iqs-29">
          <mxGeometry width="50" height="50" relative="1" as="geometry">
            <mxPoint y="40" as="sourcePoint" />
            <mxPoint x="240" y="41" as="targetPoint" />
          </mxGeometry>
        </mxCell>
        <mxCell id="pOj2W8zxsv_hfWx-8Iqs-23" value="" style="endArrow=none;html=1;rounded=0;" edge="1" parent="pOj2W8zxsv_hfWx-8Iqs-29">
          <mxGeometry width="50" height="50" relative="1" as="geometry">
            <mxPoint y="80" as="sourcePoint" />
            <mxPoint x="240" y="81" as="targetPoint" />
          </mxGeometry>
        </mxCell>
        <mxCell id="pOj2W8zxsv_hfWx-8Iqs-24" value="Values (remaining bytes)" style="text;html=1;strokeColor=none;fillColor=none;align=center;verticalAlign=middle;whiteSpace=wrap;rounded=0;" vertex="1" parent="pOj2W8zxsv_hfWx-8Iqs-29">
          <mxGeometry x="10" y="80" width="220" height="40" as="geometry" />
        </mxCell>
        <mxCell id="pOj2W8zxsv_hfWx-8Iqs-25" value="Key (multiple of 8 bytes, fixed size)" style="text;html=1;strokeColor=none;fillColor=none;align=center;verticalAlign=middle;whiteSpace=wrap;rounded=0;" vertex="1" parent="pOj2W8zxsv_hfWx-8Iqs-29">
          <mxGeometry x="10" y="40" width="210" height="40" as="geometry" />
        </mxCell>
        <mxCell id="pOj2W8zxsv_hfWx-8Iqs-26" value="Valid (8 bytes)" style="text;html=1;strokeColor=none;fillColor=none;align=center;verticalAlign=middle;whiteSpace=wrap;rounded=0;" vertex="1" parent="pOj2W8zxsv_hfWx-8Iqs-29">
          <mxGeometry x="20" width="200" height="40" as="geometry" />
        </mxCell>
        <mxCell id="pOj2W8zxsv_hfWx-8Iqs-27" value="" style="endArrow=classic;startArrow=classic;html=1;rounded=0;" edge="1" parent="pOj2W8zxsv_hfWx-8Iqs-29">
          <mxGeometry width="50" height="50" relative="1" as="geometry">
            <mxPoint x="270" y="120" as="sourcePoint" />
            <mxPoint x="270" as="targetPoint" />
          </mxGeometry>
        </mxCell>
        <mxCell id="pOj2W8zxsv_hfWx-8Iqs-28" value="Slot size = 64*n Bytes" style="text;html=1;strokeColor=none;fillColor=none;align=center;verticalAlign=middle;whiteSpace=wrap;rounded=0;" vertex="1" parent="pOj2W8zxsv_hfWx-8Iqs-29">
          <mxGeometry x="270" y="45" width="90" height="30" as="geometry" />
        </mxCell>
        <mxCell id="pOj2W8zxsv_hfWx-8Iqs-30" value="Persistent Memory Log" style="text;html=1;strokeColor=none;fillColor=none;align=center;verticalAlign=middle;whiteSpace=wrap;rounded=0;" vertex="1" parent="1">
          <mxGeometry x="170" y="80" width="220" height="30" as="geometry" />
        </mxCell>
        <mxCell id="pOj2W8zxsv_hfWx-8Iqs-31" value="" style="group" vertex="1" connectable="0" parent="1">
          <mxGeometry x="160" y="360" width="360" height="120" as="geometry" />
        </mxCell>
        <mxCell id="pOj2W8zxsv_hfWx-8Iqs-32" value="" style="rounded=0;whiteSpace=wrap;html=1;fillColor=#fff2cc;strokeColor=#d6b656;" vertex="1" parent="pOj2W8zxsv_hfWx-8Iqs-31">
          <mxGeometry width="240" height="120" as="geometry" />
        </mxCell>
        <mxCell id="pOj2W8zxsv_hfWx-8Iqs-33" value="" style="endArrow=none;html=1;rounded=0;" edge="1" parent="pOj2W8zxsv_hfWx-8Iqs-31">
          <mxGeometry width="50" height="50" relative="1" as="geometry">
            <mxPoint y="40" as="sourcePoint" />
            <mxPoint x="240" y="41" as="targetPoint" />
          </mxGeometry>
        </mxCell>
        <mxCell id="pOj2W8zxsv_hfWx-8Iqs-34" value="" style="endArrow=none;html=1;rounded=0;" edge="1" parent="pOj2W8zxsv_hfWx-8Iqs-31">
          <mxGeometry width="50" height="50" relative="1" as="geometry">
            <mxPoint y="80" as="sourcePoint" />
            <mxPoint x="240" y="81" as="targetPoint" />
          </mxGeometry>
        </mxCell>
        <mxCell id="pOj2W8zxsv_hfWx-8Iqs-35" value="Values (remaining bytes)" style="text;html=1;strokeColor=none;fillColor=none;align=center;verticalAlign=middle;whiteSpace=wrap;rounded=0;" vertex="1" parent="pOj2W8zxsv_hfWx-8Iqs-31">
          <mxGeometry x="10" y="80" width="220" height="40" as="geometry" />
        </mxCell>
        <mxCell id="pOj2W8zxsv_hfWx-8Iqs-36" value="Key (multiple of 8 bytes, fixed size)" style="text;html=1;strokeColor=none;fillColor=none;align=center;verticalAlign=middle;whiteSpace=wrap;rounded=0;" vertex="1" parent="pOj2W8zxsv_hfWx-8Iqs-31">
          <mxGeometry x="10" y="40" width="210" height="40" as="geometry" />
        </mxCell>
        <mxCell id="pOj2W8zxsv_hfWx-8Iqs-37" value="Valid (8 bytes)" style="text;html=1;strokeColor=none;fillColor=none;align=center;verticalAlign=middle;whiteSpace=wrap;rounded=0;" vertex="1" parent="pOj2W8zxsv_hfWx-8Iqs-31">
          <mxGeometry x="20" width="200" height="40" as="geometry" />
        </mxCell>
        <mxCell id="pOj2W8zxsv_hfWx-8Iqs-38" value="" style="endArrow=classic;startArrow=classic;html=1;rounded=0;" edge="1" parent="pOj2W8zxsv_hfWx-8Iqs-31">
          <mxGeometry width="50" height="50" relative="1" as="geometry">
            <mxPoint x="270" y="120" as="sourcePoint" />
            <mxPoint x="270" as="targetPoint" />
          </mxGeometry>
        </mxCell>
        <mxCell id="pOj2W8zxsv_hfWx-8Iqs-39" value="Slot size = 64*n Bytes" style="text;html=1;strokeColor=none;fillColor=none;align=center;verticalAlign=middle;whiteSpace=wrap;rounded=0;" vertex="1" parent="pOj2W8zxsv_hfWx-8Iqs-31">
          <mxGeometry x="270" y="45" width="90" height="30" as="geometry" />
        </mxCell>
      </root>
    </mxGraphModel>
  </diagram>
  <diagram id="ES24kjuF1R-ZiaWzXaRH" name="Page-2">
    <mxGraphModel dx="2125" dy="833" grid="1" gridSize="10" guides="1" tooltips="1" connect="1" arrows="1" fold="1" page="1" pageScale="1" pageWidth="827" pageHeight="1169" math="0" shadow="0">
      <root>
        <mxCell id="KepDtp3s8KrwFCrZGXRk-0" />
        <mxCell id="KepDtp3s8KrwFCrZGXRk-1" parent="KepDtp3s8KrwFCrZGXRk-0" />
        <mxCell id="epUK0uo_0PEZCL2hK7NG-0" value="" style="rounded=0;whiteSpace=wrap;html=1;fillColor=#dae8fc;strokeColor=#6c8ebf;" vertex="1" parent="KepDtp3s8KrwFCrZGXRk-1">
          <mxGeometry x="160" y="120" width="240" height="120" as="geometry" />
        </mxCell>
        <mxCell id="epUK0uo_0PEZCL2hK7NG-1" value="" style="endArrow=none;html=1;rounded=0;" edge="1" parent="KepDtp3s8KrwFCrZGXRk-1">
          <mxGeometry width="50" height="50" relative="1" as="geometry">
            <mxPoint x="160" y="160" as="sourcePoint" />
            <mxPoint x="400" y="161" as="targetPoint" />
          </mxGeometry>
        </mxCell>
        <mxCell id="epUK0uo_0PEZCL2hK7NG-2" value="" style="endArrow=none;html=1;rounded=0;" edge="1" parent="KepDtp3s8KrwFCrZGXRk-1">
          <mxGeometry width="50" height="50" relative="1" as="geometry">
            <mxPoint x="160" y="200" as="sourcePoint" />
            <mxPoint x="400" y="201" as="targetPoint" />
          </mxGeometry>
        </mxCell>
        <mxCell id="epUK0uo_0PEZCL2hK7NG-3" value="Tail (byte offset)" style="text;html=1;strokeColor=none;fillColor=none;align=center;verticalAlign=middle;whiteSpace=wrap;rounded=0;" vertex="1" parent="KepDtp3s8KrwFCrZGXRk-1">
          <mxGeometry x="170" y="200" width="220" height="40" as="geometry" />
        </mxCell>
        <mxCell id="epUK0uo_0PEZCL2hK7NG-4" value="Head (bytes offset)" style="text;html=1;strokeColor=none;fillColor=none;align=center;verticalAlign=middle;whiteSpace=wrap;rounded=0;" vertex="1" parent="KepDtp3s8KrwFCrZGXRk-1">
          <mxGeometry x="170" y="160" width="210" height="40" as="geometry" />
        </mxCell>
        <mxCell id="epUK0uo_0PEZCL2hK7NG-5" value="Max Size (bytes)" style="text;html=1;strokeColor=none;fillColor=none;align=center;verticalAlign=middle;whiteSpace=wrap;rounded=0;" vertex="1" parent="KepDtp3s8KrwFCrZGXRk-1">
          <mxGeometry x="180" y="120" width="200" height="40" as="geometry" />
        </mxCell>
        <mxCell id="epUK0uo_0PEZCL2hK7NG-6" value="" style="endArrow=classic;startArrow=classic;html=1;rounded=0;" edge="1" parent="KepDtp3s8KrwFCrZGXRk-1">
          <mxGeometry width="50" height="50" relative="1" as="geometry">
            <mxPoint x="430" y="240" as="sourcePoint" />
            <mxPoint x="430" y="120" as="targetPoint" />
          </mxGeometry>
        </mxCell>
        <mxCell id="epUK0uo_0PEZCL2hK7NG-7" value="Metadata size = 64 Bytes" style="text;html=1;strokeColor=none;fillColor=none;align=center;verticalAlign=middle;whiteSpace=wrap;rounded=0;" vertex="1" parent="KepDtp3s8KrwFCrZGXRk-1">
          <mxGeometry x="430" y="165" width="130" height="30" as="geometry" />
        </mxCell>
        <mxCell id="epUK0uo_0PEZCL2hK7NG-8" value="" style="group" vertex="1" connectable="0" parent="KepDtp3s8KrwFCrZGXRk-1">
          <mxGeometry x="160" y="240" width="400" height="120" as="geometry" />
        </mxCell>
        <mxCell id="epUK0uo_0PEZCL2hK7NG-9" value="" style="rounded=0;whiteSpace=wrap;html=1;fillColor=#fff2cc;strokeColor=#d6b656;" vertex="1" parent="epUK0uo_0PEZCL2hK7NG-8">
          <mxGeometry width="240" height="120" as="geometry" />
        </mxCell>
        <mxCell id="epUK0uo_0PEZCL2hK7NG-10" value="" style="endArrow=none;html=1;rounded=0;" edge="1" parent="epUK0uo_0PEZCL2hK7NG-8">
          <mxGeometry width="50" height="50" relative="1" as="geometry">
            <mxPoint y="40" as="sourcePoint" />
            <mxPoint x="240" y="41" as="targetPoint" />
          </mxGeometry>
        </mxCell>
        <mxCell id="epUK0uo_0PEZCL2hK7NG-11" value="" style="endArrow=none;html=1;rounded=0;" edge="1" parent="epUK0uo_0PEZCL2hK7NG-8">
          <mxGeometry width="50" height="50" relative="1" as="geometry">
            <mxPoint y="80" as="sourcePoint" />
            <mxPoint x="240" y="81" as="targetPoint" />
          </mxGeometry>
        </mxCell>
        <mxCell id="epUK0uo_0PEZCL2hK7NG-12" value="Values (remaining bytes)" style="text;html=1;strokeColor=none;fillColor=none;align=center;verticalAlign=middle;whiteSpace=wrap;rounded=0;" vertex="1" parent="epUK0uo_0PEZCL2hK7NG-8">
          <mxGeometry x="10" y="80" width="220" height="40" as="geometry" />
        </mxCell>
        <mxCell id="epUK0uo_0PEZCL2hK7NG-13" value="Key (multiple of 8 bytes, fixed size)" style="text;html=1;strokeColor=none;fillColor=none;align=center;verticalAlign=middle;whiteSpace=wrap;rounded=0;" vertex="1" parent="epUK0uo_0PEZCL2hK7NG-8">
          <mxGeometry x="10" y="40" width="210" height="40" as="geometry" />
        </mxCell>
        <mxCell id="epUK0uo_0PEZCL2hK7NG-14" value="Valid (8 bytes)" style="text;html=1;strokeColor=none;fillColor=none;align=center;verticalAlign=middle;whiteSpace=wrap;rounded=0;" vertex="1" parent="epUK0uo_0PEZCL2hK7NG-8">
          <mxGeometry x="20" width="200" height="40" as="geometry" />
        </mxCell>
        <mxCell id="epUK0uo_0PEZCL2hK7NG-15" value="" style="endArrow=classic;startArrow=classic;html=1;rounded=0;" edge="1" parent="epUK0uo_0PEZCL2hK7NG-8">
          <mxGeometry width="50" height="50" relative="1" as="geometry">
            <mxPoint x="270" y="120" as="sourcePoint" />
            <mxPoint x="270" as="targetPoint" />
          </mxGeometry>
        </mxCell>
        <mxCell id="epUK0uo_0PEZCL2hK7NG-16" value="Slot size = 64*n Bytes" style="text;html=1;strokeColor=none;fillColor=none;align=center;verticalAlign=middle;whiteSpace=wrap;rounded=0;" vertex="1" parent="epUK0uo_0PEZCL2hK7NG-8">
          <mxGeometry x="270" y="45" width="130" height="30" as="geometry" />
        </mxCell>
        <mxCell id="epUK0uo_0PEZCL2hK7NG-17" value="&lt;font style=&quot;font-size: 17px;&quot;&gt;Persistent Memory Log&lt;/font&gt;" style="text;html=1;strokeColor=none;fillColor=none;align=center;verticalAlign=middle;whiteSpace=wrap;rounded=0;fontSize=17;fontStyle=0" vertex="1" parent="KepDtp3s8KrwFCrZGXRk-1">
          <mxGeometry x="170" y="80" width="220" height="30" as="geometry" />
        </mxCell>
        <mxCell id="epUK0uo_0PEZCL2hK7NG-18" value="" style="group" vertex="1" connectable="0" parent="KepDtp3s8KrwFCrZGXRk-1">
          <mxGeometry x="160" y="360" width="400" height="120" as="geometry" />
        </mxCell>
        <mxCell id="epUK0uo_0PEZCL2hK7NG-19" value="" style="rounded=0;whiteSpace=wrap;html=1;fillColor=#fff2cc;strokeColor=#d6b656;" vertex="1" parent="epUK0uo_0PEZCL2hK7NG-18">
          <mxGeometry width="240" height="120" as="geometry" />
        </mxCell>
        <mxCell id="epUK0uo_0PEZCL2hK7NG-20" value="" style="endArrow=none;html=1;rounded=0;" edge="1" parent="epUK0uo_0PEZCL2hK7NG-18">
          <mxGeometry width="50" height="50" relative="1" as="geometry">
            <mxPoint y="40" as="sourcePoint" />
            <mxPoint x="240" y="41" as="targetPoint" />
          </mxGeometry>
        </mxCell>
        <mxCell id="epUK0uo_0PEZCL2hK7NG-21" value="" style="endArrow=none;html=1;rounded=0;" edge="1" parent="epUK0uo_0PEZCL2hK7NG-18">
          <mxGeometry width="50" height="50" relative="1" as="geometry">
            <mxPoint y="80" as="sourcePoint" />
            <mxPoint x="240" y="81" as="targetPoint" />
          </mxGeometry>
        </mxCell>
        <mxCell id="epUK0uo_0PEZCL2hK7NG-22" value="Values (remaining bytes)" style="text;html=1;strokeColor=none;fillColor=none;align=center;verticalAlign=middle;whiteSpace=wrap;rounded=0;" vertex="1" parent="epUK0uo_0PEZCL2hK7NG-18">
          <mxGeometry x="10" y="80" width="220" height="40" as="geometry" />
        </mxCell>
        <mxCell id="epUK0uo_0PEZCL2hK7NG-23" value="Key (multiple of 8 bytes, fixed size)" style="text;html=1;strokeColor=none;fillColor=none;align=center;verticalAlign=middle;whiteSpace=wrap;rounded=0;" vertex="1" parent="epUK0uo_0PEZCL2hK7NG-18">
          <mxGeometry x="10" y="40" width="210" height="40" as="geometry" />
        </mxCell>
        <mxCell id="epUK0uo_0PEZCL2hK7NG-24" value="Valid (8 bytes)" style="text;html=1;strokeColor=none;fillColor=none;align=center;verticalAlign=middle;whiteSpace=wrap;rounded=0;" vertex="1" parent="epUK0uo_0PEZCL2hK7NG-18">
          <mxGeometry x="20" width="200" height="40" as="geometry" />
        </mxCell>
        <mxCell id="epUK0uo_0PEZCL2hK7NG-25" value="" style="endArrow=classic;startArrow=classic;html=1;rounded=0;" edge="1" parent="epUK0uo_0PEZCL2hK7NG-18">
          <mxGeometry width="50" height="50" relative="1" as="geometry">
            <mxPoint x="270" y="120" as="sourcePoint" />
            <mxPoint x="270" as="targetPoint" />
          </mxGeometry>
        </mxCell>
        <mxCell id="epUK0uo_0PEZCL2hK7NG-26" value="Slot size = 64*n Bytes" style="text;html=1;strokeColor=none;fillColor=none;align=center;verticalAlign=middle;whiteSpace=wrap;rounded=0;" vertex="1" parent="epUK0uo_0PEZCL2hK7NG-18">
          <mxGeometry x="270" y="45" width="130" height="30" as="geometry" />
        </mxCell>
        <mxCell id="KxDKl5nLATRJx87p7LYF-4" value="" style="endArrow=classic;html=1;rounded=0;fontSize=15;entryX=0;entryY=0;entryDx=0;entryDy=0;exitX=1;exitY=0.5;exitDx=0;exitDy=0;" edge="1" parent="KepDtp3s8KrwFCrZGXRk-1" source="KxDKl5nLATRJx87p7LYF-1" target="epUK0uo_0PEZCL2hK7NG-19">
          <mxGeometry width="50" height="50" relative="1" as="geometry">
            <mxPoint y="220" as="sourcePoint" />
            <mxPoint x="50" y="170" as="targetPoint" />
          </mxGeometry>
        </mxCell>
        <mxCell id="KxDKl5nLATRJx87p7LYF-5" value="slot: 1" style="text;html=1;strokeColor=none;fillColor=none;align=center;verticalAlign=middle;whiteSpace=wrap;rounded=0;fontSize=15;" vertex="1" parent="KepDtp3s8KrwFCrZGXRk-1">
          <mxGeometry x="90" y="360" width="60" height="30" as="geometry" />
        </mxCell>
        <mxCell id="KxDKl5nLATRJx87p7LYF-6" value="slot: 0" style="text;html=1;strokeColor=none;fillColor=none;align=center;verticalAlign=middle;whiteSpace=wrap;rounded=0;fontSize=15;" vertex="1" parent="KepDtp3s8KrwFCrZGXRk-1">
          <mxGeometry x="90" y="240" width="60" height="30" as="geometry" />
        </mxCell>
        <mxCell id="KxDKl5nLATRJx87p7LYF-7" value="slot: 2" style="text;html=1;strokeColor=none;fillColor=none;align=center;verticalAlign=middle;whiteSpace=wrap;rounded=0;fontSize=15;" vertex="1" parent="KepDtp3s8KrwFCrZGXRk-1">
          <mxGeometry x="90" y="480" width="60" height="30" as="geometry" />
        </mxCell>
        <mxCell id="KxDKl5nLATRJx87p7LYF-8" value="" style="group" vertex="1" connectable="0" parent="KepDtp3s8KrwFCrZGXRk-1">
          <mxGeometry x="160" y="480" width="400" height="120" as="geometry" />
        </mxCell>
        <mxCell id="KxDKl5nLATRJx87p7LYF-9" value="" style="rounded=0;whiteSpace=wrap;html=1;fillColor=#fff2cc;strokeColor=#d6b656;" vertex="1" parent="KxDKl5nLATRJx87p7LYF-8">
          <mxGeometry width="240" height="120" as="geometry" />
        </mxCell>
        <mxCell id="KxDKl5nLATRJx87p7LYF-10" value="" style="endArrow=none;html=1;rounded=0;" edge="1" parent="KxDKl5nLATRJx87p7LYF-8">
          <mxGeometry width="50" height="50" relative="1" as="geometry">
            <mxPoint y="40" as="sourcePoint" />
            <mxPoint x="240" y="41" as="targetPoint" />
          </mxGeometry>
        </mxCell>
        <mxCell id="KxDKl5nLATRJx87p7LYF-11" value="" style="endArrow=none;html=1;rounded=0;" edge="1" parent="KxDKl5nLATRJx87p7LYF-8">
          <mxGeometry width="50" height="50" relative="1" as="geometry">
            <mxPoint y="80" as="sourcePoint" />
            <mxPoint x="240" y="81" as="targetPoint" />
          </mxGeometry>
        </mxCell>
        <mxCell id="KxDKl5nLATRJx87p7LYF-12" value="Values (remaining bytes)" style="text;html=1;strokeColor=none;fillColor=none;align=center;verticalAlign=middle;whiteSpace=wrap;rounded=0;" vertex="1" parent="KxDKl5nLATRJx87p7LYF-8">
          <mxGeometry x="10" y="80" width="220" height="40" as="geometry" />
        </mxCell>
        <mxCell id="KxDKl5nLATRJx87p7LYF-13" value="Key (multiple of 8 bytes, fixed size)" style="text;html=1;strokeColor=none;fillColor=none;align=center;verticalAlign=middle;whiteSpace=wrap;rounded=0;" vertex="1" parent="KxDKl5nLATRJx87p7LYF-8">
          <mxGeometry x="10" y="40" width="210" height="40" as="geometry" />
        </mxCell>
        <mxCell id="KxDKl5nLATRJx87p7LYF-14" value="Valid (8 bytes)" style="text;html=1;strokeColor=none;fillColor=none;align=center;verticalAlign=middle;whiteSpace=wrap;rounded=0;" vertex="1" parent="KxDKl5nLATRJx87p7LYF-8">
          <mxGeometry x="20" width="200" height="40" as="geometry" />
        </mxCell>
        <mxCell id="KxDKl5nLATRJx87p7LYF-15" value="" style="endArrow=classic;startArrow=classic;html=1;rounded=0;" edge="1" parent="KxDKl5nLATRJx87p7LYF-8">
          <mxGeometry width="50" height="50" relative="1" as="geometry">
            <mxPoint x="270" y="120" as="sourcePoint" />
            <mxPoint x="270" as="targetPoint" />
          </mxGeometry>
        </mxCell>
        <mxCell id="KxDKl5nLATRJx87p7LYF-16" value="Slot size = 64*n Bytes" style="text;html=1;strokeColor=none;fillColor=none;align=center;verticalAlign=middle;whiteSpace=wrap;rounded=0;" vertex="1" parent="KxDKl5nLATRJx87p7LYF-8">
          <mxGeometry x="270" y="45" width="130" height="30" as="geometry" />
        </mxCell>
        <mxCell id="KxDKl5nLATRJx87p7LYF-17" value="" style="endArrow=classic;html=1;rounded=0;fontSize=15;entryX=1;entryY=0;entryDx=0;entryDy=0;exitX=1;exitY=0.5;exitDx=0;exitDy=0;" edge="1" parent="KepDtp3s8KrwFCrZGXRk-1" source="KxDKl5nLATRJx87p7LYF-2" target="KxDKl5nLATRJx87p7LYF-6">
          <mxGeometry width="50" height="50" relative="1" as="geometry">
            <mxPoint y="260" as="sourcePoint" />
            <mxPoint x="50" y="210" as="targetPoint" />
          </mxGeometry>
        </mxCell>
        <mxCell id="KxDKl5nLATRJx87p7LYF-25" value="" style="endArrow=classic;html=1;rounded=0;fontSize=15;exitX=1;exitY=0.5;exitDx=0;exitDy=0;" edge="1" parent="KepDtp3s8KrwFCrZGXRk-1" source="KxDKl5nLATRJx87p7LYF-3">
          <mxGeometry width="50" height="50" relative="1" as="geometry">
            <mxPoint y="310" as="sourcePoint" />
            <mxPoint x="140" y="690" as="targetPoint" />
          </mxGeometry>
        </mxCell>
        <mxCell id="KxDKl5nLATRJx87p7LYF-26" value="&lt;font style=&quot;font-size: 17px&quot;&gt;Volatile Index&lt;/font&gt;" style="text;html=1;strokeColor=none;fillColor=none;align=center;verticalAlign=middle;whiteSpace=wrap;rounded=0;fontSize=17;fontStyle=0" vertex="1" parent="KepDtp3s8KrwFCrZGXRk-1">
          <mxGeometry x="-150" y="110" width="220" height="30" as="geometry" />
        </mxCell>
        <mxCell id="KxDKl5nLATRJx87p7LYF-27" value="" style="group" vertex="1" connectable="0" parent="KepDtp3s8KrwFCrZGXRk-1">
          <mxGeometry x="-110" y="160" width="140" height="160" as="geometry" />
        </mxCell>
        <mxCell id="KxDKl5nLATRJx87p7LYF-0" value="&lt;b&gt;key: slot_number&lt;/b&gt;" style="rounded=0;whiteSpace=wrap;html=1;fontSize=15;" vertex="1" parent="KxDKl5nLATRJx87p7LYF-27">
          <mxGeometry width="140" height="40" as="geometry" />
        </mxCell>
        <mxCell id="KxDKl5nLATRJx87p7LYF-1" value="key1: 1" style="rounded=0;whiteSpace=wrap;html=1;fontSize=15;" vertex="1" parent="KxDKl5nLATRJx87p7LYF-27">
          <mxGeometry y="40" width="140" height="40" as="geometry" />
        </mxCell>
        <mxCell id="KxDKl5nLATRJx87p7LYF-2" value="key2: 0" style="rounded=0;whiteSpace=wrap;html=1;fontSize=15;" vertex="1" parent="KxDKl5nLATRJx87p7LYF-27">
          <mxGeometry y="80" width="140" height="40" as="geometry" />
        </mxCell>
        <mxCell id="KxDKl5nLATRJx87p7LYF-3" value="key3: 4" style="rounded=0;whiteSpace=wrap;html=1;fontSize=15;" vertex="1" parent="KxDKl5nLATRJx87p7LYF-27">
          <mxGeometry y="120" width="140" height="40" as="geometry" />
        </mxCell>
        <mxCell id="KxDKl5nLATRJx87p7LYF-29" value="" style="group" vertex="1" connectable="0" parent="KepDtp3s8KrwFCrZGXRk-1">
          <mxGeometry x="270" y="620" width="10" height="50" as="geometry" />
        </mxCell>
        <mxCell id="KxDKl5nLATRJx87p7LYF-20" value="" style="ellipse;whiteSpace=wrap;html=1;fontSize=15;" vertex="1" parent="KxDKl5nLATRJx87p7LYF-29">
          <mxGeometry width="10" height="10" as="geometry" />
        </mxCell>
        <mxCell id="KxDKl5nLATRJx87p7LYF-21" value="" style="ellipse;whiteSpace=wrap;html=1;fontSize=15;" vertex="1" parent="KxDKl5nLATRJx87p7LYF-29">
          <mxGeometry y="20" width="10" height="10" as="geometry" />
        </mxCell>
        <mxCell id="KxDKl5nLATRJx87p7LYF-22" value="" style="ellipse;whiteSpace=wrap;html=1;fontSize=15;" vertex="1" parent="KxDKl5nLATRJx87p7LYF-29">
          <mxGeometry y="40" width="10" height="10" as="geometry" />
        </mxCell>
        <mxCell id="KxDKl5nLATRJx87p7LYF-30" value="" style="group" vertex="1" connectable="0" parent="KepDtp3s8KrwFCrZGXRk-1">
          <mxGeometry x="-40" y="330" width="10" height="50" as="geometry" />
        </mxCell>
        <mxCell id="KxDKl5nLATRJx87p7LYF-31" value="" style="ellipse;whiteSpace=wrap;html=1;fontSize=15;" vertex="1" parent="KxDKl5nLATRJx87p7LYF-30">
          <mxGeometry width="10" height="10" as="geometry" />
        </mxCell>
        <mxCell id="KxDKl5nLATRJx87p7LYF-32" value="" style="ellipse;whiteSpace=wrap;html=1;fontSize=15;" vertex="1" parent="KxDKl5nLATRJx87p7LYF-30">
          <mxGeometry y="20" width="10" height="10" as="geometry" />
        </mxCell>
        <mxCell id="KxDKl5nLATRJx87p7LYF-33" value="" style="ellipse;whiteSpace=wrap;html=1;fontSize=15;" vertex="1" parent="KxDKl5nLATRJx87p7LYF-30">
          <mxGeometry y="40" width="10" height="10" as="geometry" />
        </mxCell>
        <mxCell id="KxDKl5nLATRJx87p7LYF-34" value="slot: 4" style="text;html=1;strokeColor=none;fillColor=none;align=center;verticalAlign=middle;whiteSpace=wrap;rounded=0;fontSize=15;" vertex="1" parent="KepDtp3s8KrwFCrZGXRk-1">
          <mxGeometry x="100" y="690" width="60" height="30" as="geometry" />
        </mxCell>
      </root>
    </mxGraphModel>
  </diagram>
  <diagram id="-MEYfAFJssLuRffLAYME" name="Page-3">
    <mxGraphModel dx="2125" dy="776" grid="1" gridSize="10" guides="1" tooltips="1" connect="1" arrows="1" fold="1" page="1" pageScale="1" pageWidth="827" pageHeight="1169" math="0" shadow="0">
      <root>
        <mxCell id="bOzH4pot5Tq7jgQZv80o-0" />
        <mxCell id="bOzH4pot5Tq7jgQZv80o-1" parent="bOzH4pot5Tq7jgQZv80o-0" />
        <mxCell id="QUAg6ZB-ae-JOw2iht7_-0" value="" style="endArrow=none;html=1;rounded=0;fontSize=17;startArrow=none;" edge="1" parent="bOzH4pot5Tq7jgQZv80o-1" source="QUAg6ZB-ae-JOw2iht7_-33">
          <mxGeometry width="50" height="50" relative="1" as="geometry">
            <mxPoint x="320" y="450" as="sourcePoint" />
            <mxPoint x="320" y="120" as="targetPoint" />
          </mxGeometry>
        </mxCell>
        <mxCell id="QUAg6ZB-ae-JOw2iht7_-1" value="" style="endArrow=none;html=1;rounded=0;fontSize=17;startArrow=none;" edge="1" parent="bOzH4pot5Tq7jgQZv80o-1" source="QUAg6ZB-ae-JOw2iht7_-17">
          <mxGeometry width="50" height="50" relative="1" as="geometry">
            <mxPoint x="520" y="450" as="sourcePoint" />
            <mxPoint x="520" y="120" as="targetPoint" />
          </mxGeometry>
        </mxCell>
        <mxCell id="QUAg6ZB-ae-JOw2iht7_-2" value="Insert Key, Value" style="text;html=1;strokeColor=none;fillColor=none;align=center;verticalAlign=middle;whiteSpace=wrap;rounded=0;fontSize=17;labelBorderColor=default;labelBackgroundColor=#99CCFF;" vertex="1" parent="bOzH4pot5Tq7jgQZv80o-1">
          <mxGeometry x="170" y="120" width="140" height="30" as="geometry" />
        </mxCell>
        <mxCell id="QUAg6ZB-ae-JOw2iht7_-7" value="Foreground Thread" style="text;html=1;strokeColor=none;fillColor=none;align=center;verticalAlign=middle;whiteSpace=wrap;rounded=0;labelBorderColor=default;fontSize=17;labelBackgroundColor=#99CCFF;" vertex="1" parent="bOzH4pot5Tq7jgQZv80o-1">
          <mxGeometry x="250" y="50" width="140" height="30" as="geometry" />
        </mxCell>
        <mxCell id="QUAg6ZB-ae-JOw2iht7_-8" value="Background Thread" style="text;html=1;strokeColor=none;fillColor=none;align=center;verticalAlign=middle;whiteSpace=wrap;rounded=0;labelBorderColor=default;fontSize=17;labelBackgroundColor=#FFFF99;" vertex="1" parent="bOzH4pot5Tq7jgQZv80o-1">
          <mxGeometry x="450" y="50" width="140" height="30" as="geometry" />
        </mxCell>
        <mxCell id="QUAg6ZB-ae-JOw2iht7_-9" value="" style="endArrow=classic;html=1;rounded=0;fontSize=17;" edge="1" parent="bOzH4pot5Tq7jgQZv80o-1">
          <mxGeometry width="50" height="50" relative="1" as="geometry">
            <mxPoint x="320" y="150" as="sourcePoint" />
            <mxPoint x="520" y="180" as="targetPoint" />
          </mxGeometry>
        </mxCell>
        <mxCell id="QUAg6ZB-ae-JOw2iht7_-10" value="LogInsert(Key, Value)" style="text;html=1;strokeColor=none;fillColor=none;align=center;verticalAlign=middle;whiteSpace=wrap;rounded=0;labelBorderColor=default;fontSize=17;labelBackgroundColor=#99CCFF;" vertex="1" parent="bOzH4pot5Tq7jgQZv80o-1">
          <mxGeometry x="290" y="120" width="260" height="30" as="geometry" />
        </mxCell>
        <mxCell id="QUAg6ZB-ae-JOw2iht7_-13" value="" style="shape=curlyBracket;whiteSpace=wrap;html=1;rounded=1;flipH=1;labelBackgroundColor=#99CCFF;labelBorderColor=default;fontSize=17;" vertex="1" parent="bOzH4pot5Tq7jgQZv80o-1">
          <mxGeometry x="550" y="190" width="20" height="60" as="geometry" />
        </mxCell>
        <mxCell id="QUAg6ZB-ae-JOw2iht7_-14" value="" style="line;strokeWidth=2;html=1;labelBackgroundColor=#99CCFF;labelBorderColor=default;fontSize=17;" vertex="1" parent="bOzH4pot5Tq7jgQZv80o-1">
          <mxGeometry x="505" y="240" width="30" height="10" as="geometry" />
        </mxCell>
        <mxCell id="QUAg6ZB-ae-JOw2iht7_-15" value="" style="endArrow=none;html=1;rounded=0;fontSize=17;startArrow=none;" edge="1" parent="bOzH4pot5Tq7jgQZv80o-1" source="QUAg6ZB-ae-JOw2iht7_-45" target="QUAg6ZB-ae-JOw2iht7_-14">
          <mxGeometry width="50" height="50" relative="1" as="geometry">
            <mxPoint x="520" y="450" as="sourcePoint" />
            <mxPoint x="520" y="120" as="targetPoint" />
          </mxGeometry>
        </mxCell>
        <mxCell id="QUAg6ZB-ae-JOw2iht7_-17" value="" style="line;strokeWidth=2;html=1;labelBackgroundColor=#99CCFF;labelBorderColor=default;fontSize=17;" vertex="1" parent="bOzH4pot5Tq7jgQZv80o-1">
          <mxGeometry x="505" y="190" width="30" height="10" as="geometry" />
        </mxCell>
        <mxCell id="QUAg6ZB-ae-JOw2iht7_-18" value="" style="endArrow=none;html=1;rounded=0;fontSize=17;startArrow=none;" edge="1" parent="bOzH4pot5Tq7jgQZv80o-1" source="QUAg6ZB-ae-JOw2iht7_-14" target="QUAg6ZB-ae-JOw2iht7_-17">
          <mxGeometry width="50" height="50" relative="1" as="geometry">
            <mxPoint x="520" y="230" as="sourcePoint" />
            <mxPoint x="520" y="120" as="targetPoint" />
          </mxGeometry>
        </mxCell>
        <mxCell id="QUAg6ZB-ae-JOw2iht7_-28" value="GetFreeSlot from Free Slot Queue or Increase Log tail" style="text;html=1;strokeColor=none;fillColor=none;align=center;verticalAlign=middle;whiteSpace=wrap;rounded=0;labelBackgroundColor=#FFFF99;labelBorderColor=default;fontSize=17;" vertex="1" parent="bOzH4pot5Tq7jgQZv80o-1">
          <mxGeometry x="580" y="190" width="160" height="60" as="geometry" />
        </mxCell>
        <mxCell id="QUAg6ZB-ae-JOw2iht7_-29" value="" style="shape=curlyBracket;whiteSpace=wrap;html=1;rounded=1;flipH=1;labelBackgroundColor=#99CCFF;labelBorderColor=default;fontSize=17;" vertex="1" parent="bOzH4pot5Tq7jgQZv80o-1">
          <mxGeometry x="550" y="250" width="20" height="110" as="geometry" />
        </mxCell>
        <mxCell id="QUAg6ZB-ae-JOw2iht7_-30" value="Add Key, Value to slot obtained in persistent memory" style="text;html=1;strokeColor=none;fillColor=none;align=center;verticalAlign=middle;whiteSpace=wrap;rounded=0;labelBackgroundColor=#FFFF99;labelBorderColor=default;fontSize=17;" vertex="1" parent="bOzH4pot5Tq7jgQZv80o-1">
          <mxGeometry x="580" y="275" width="160" height="60" as="geometry" />
        </mxCell>
        <mxCell id="QUAg6ZB-ae-JOw2iht7_-33" value="" style="line;strokeWidth=2;html=1;labelBackgroundColor=#99CCFF;labelBorderColor=default;fontSize=17;" vertex="1" parent="bOzH4pot5Tq7jgQZv80o-1">
          <mxGeometry x="305" y="150" width="30" height="10" as="geometry" />
        </mxCell>
        <mxCell id="QUAg6ZB-ae-JOw2iht7_-34" value="" style="endArrow=none;html=1;rounded=0;fontSize=17;startArrow=none;" edge="1" parent="bOzH4pot5Tq7jgQZv80o-1" source="QeWMO5I5Hsl7-kJJO-rd-0" target="QUAg6ZB-ae-JOw2iht7_-33">
          <mxGeometry width="50" height="50" relative="1" as="geometry">
            <mxPoint x="320" y="450" as="sourcePoint" />
            <mxPoint x="320" y="120" as="targetPoint" />
          </mxGeometry>
        </mxCell>
        <mxCell id="QUAg6ZB-ae-JOw2iht7_-35" value="" style="line;strokeWidth=2;html=1;labelBackgroundColor=#99CCFF;labelBorderColor=default;fontSize=17;" vertex="1" parent="bOzH4pot5Tq7jgQZv80o-1">
          <mxGeometry x="305" y="310" width="30" height="10" as="geometry" />
        </mxCell>
        <mxCell id="QUAg6ZB-ae-JOw2iht7_-36" value="" style="endArrow=none;html=1;rounded=0;fontSize=17;startArrow=none;" edge="1" parent="bOzH4pot5Tq7jgQZv80o-1" source="QUAg6ZB-ae-JOw2iht7_-47" target="QUAg6ZB-ae-JOw2iht7_-35">
          <mxGeometry width="50" height="50" relative="1" as="geometry">
            <mxPoint x="320" y="450" as="sourcePoint" />
            <mxPoint x="320" y="160" as="targetPoint" />
          </mxGeometry>
        </mxCell>
        <mxCell id="QUAg6ZB-ae-JOw2iht7_-37" value="" style="shape=curlyBracket;whiteSpace=wrap;html=1;rounded=1;labelBackgroundColor=#FFFF99;labelBorderColor=default;fontSize=17;" vertex="1" parent="bOzH4pot5Tq7jgQZv80o-1">
          <mxGeometry x="270" y="230" width="20" height="90" as="geometry" />
        </mxCell>
        <mxCell id="QUAg6ZB-ae-JOw2iht7_-38" value="Add key to volatile index. If key is already present then store existing offset." style="text;html=1;strokeColor=none;fillColor=none;align=center;verticalAlign=middle;whiteSpace=wrap;rounded=0;fontSize=17;labelBorderColor=default;labelBackgroundColor=#99CCFF;" vertex="1" parent="bOzH4pot5Tq7jgQZv80o-1">
          <mxGeometry x="113.75" y="230" width="140" height="70" as="geometry" />
        </mxCell>
        <mxCell id="QUAg6ZB-ae-JOw2iht7_-41" value="" style="shape=curlyBracket;whiteSpace=wrap;html=1;rounded=1;labelBackgroundColor=#FFFF99;labelBorderColor=default;fontSize=17;" vertex="1" parent="bOzH4pot5Tq7jgQZv80o-1">
          <mxGeometry x="270" y="320" width="20" height="70" as="geometry" />
        </mxCell>
        <mxCell id="QUAg6ZB-ae-JOw2iht7_-42" value="LogInsertWait()" style="text;html=1;strokeColor=none;fillColor=none;align=center;verticalAlign=middle;whiteSpace=wrap;rounded=0;labelBorderColor=default;fontSize=17;labelBackgroundColor=#99CCFF;" vertex="1" parent="bOzH4pot5Tq7jgQZv80o-1">
          <mxGeometry x="-90" y="360" width="210" height="30" as="geometry" />
        </mxCell>
        <mxCell id="QUAg6ZB-ae-JOw2iht7_-43" value="Spin lock: busy wait" style="text;html=1;strokeColor=none;fillColor=none;align=center;verticalAlign=middle;whiteSpace=wrap;rounded=0;labelBorderColor=default;fontSize=17;labelBackgroundColor=#99CCFF;" vertex="1" parent="bOzH4pot5Tq7jgQZv80o-1">
          <mxGeometry x="52.5" y="340" width="252.5" height="30" as="geometry" />
        </mxCell>
        <mxCell id="QUAg6ZB-ae-JOw2iht7_-44" value="" style="endArrow=classic;html=1;rounded=0;fontSize=17;" edge="1" parent="bOzH4pot5Tq7jgQZv80o-1">
          <mxGeometry width="50" height="50" relative="1" as="geometry">
            <mxPoint x="520" y="370" as="sourcePoint" />
            <mxPoint x="320" y="390" as="targetPoint" />
          </mxGeometry>
        </mxCell>
        <mxCell id="QUAg6ZB-ae-JOw2iht7_-45" value="" style="line;strokeWidth=2;html=1;labelBackgroundColor=#99CCFF;labelBorderColor=default;fontSize=17;" vertex="1" parent="bOzH4pot5Tq7jgQZv80o-1">
          <mxGeometry x="505" y="360" width="30" height="10" as="geometry" />
        </mxCell>
        <mxCell id="QUAg6ZB-ae-JOw2iht7_-46" value="" style="endArrow=none;html=1;rounded=0;fontSize=17;" edge="1" parent="bOzH4pot5Tq7jgQZv80o-1" target="QUAg6ZB-ae-JOw2iht7_-45">
          <mxGeometry width="50" height="50" relative="1" as="geometry">
            <mxPoint x="520" y="560" as="sourcePoint" />
            <mxPoint x="520" y="250" as="targetPoint" />
          </mxGeometry>
        </mxCell>
        <mxCell id="QUAg6ZB-ae-JOw2iht7_-47" value="" style="line;strokeWidth=2;html=1;labelBackgroundColor=#99CCFF;labelBorderColor=default;fontSize=17;" vertex="1" parent="bOzH4pot5Tq7jgQZv80o-1">
          <mxGeometry x="305" y="390" width="30" height="10" as="geometry" />
        </mxCell>
        <mxCell id="QUAg6ZB-ae-JOw2iht7_-48" value="" style="endArrow=none;html=1;rounded=0;fontSize=17;startArrow=none;" edge="1" parent="bOzH4pot5Tq7jgQZv80o-1" source="QUAg6ZB-ae-JOw2iht7_-54" target="QUAg6ZB-ae-JOw2iht7_-47">
          <mxGeometry width="50" height="50" relative="1" as="geometry">
            <mxPoint x="320" y="520" as="sourcePoint" />
            <mxPoint x="320" y="320" as="targetPoint" />
          </mxGeometry>
        </mxCell>
        <mxCell id="QUAg6ZB-ae-JOw2iht7_-49" value="Commit: Add valid code to offset in persistent memory" style="text;html=1;strokeColor=none;fillColor=none;align=center;verticalAlign=middle;whiteSpace=wrap;rounded=0;labelBorderColor=default;fontSize=17;labelBackgroundColor=#99CCFF;" vertex="1" parent="bOzH4pot5Tq7jgQZv80o-1">
          <mxGeometry x="106.25" y="360" width="147.5" height="150" as="geometry" />
        </mxCell>
        <mxCell id="QUAg6ZB-ae-JOw2iht7_-50" value="Offset" style="text;html=1;strokeColor=none;fillColor=none;align=center;verticalAlign=middle;whiteSpace=wrap;rounded=0;labelBackgroundColor=none;labelBorderColor=default;fontSize=17;" vertex="1" parent="bOzH4pot5Tq7jgQZv80o-1">
          <mxGeometry x="330" y="360" width="60" height="30" as="geometry" />
        </mxCell>
        <mxCell id="QUAg6ZB-ae-JOw2iht7_-51" value="" style="shape=curlyBracket;whiteSpace=wrap;html=1;rounded=1;labelBackgroundColor=#FFFF99;labelBorderColor=default;fontSize=17;" vertex="1" parent="bOzH4pot5Tq7jgQZv80o-1">
          <mxGeometry x="70" y="320" width="20" height="150" as="geometry" />
        </mxCell>
        <mxCell id="QUAg6ZB-ae-JOw2iht7_-52" value="" style="shape=curlyBracket;whiteSpace=wrap;html=1;rounded=1;labelBackgroundColor=#FFFF99;labelBorderColor=default;fontSize=17;" vertex="1" parent="bOzH4pot5Tq7jgQZv80o-1">
          <mxGeometry x="270" y="400" width="20" height="60" as="geometry" />
        </mxCell>
        <mxCell id="QUAg6ZB-ae-JOw2iht7_-53" value="" style="shape=curlyBracket;whiteSpace=wrap;html=1;rounded=1;labelBackgroundColor=none;labelBorderColor=default;fontSize=17;" vertex="1" parent="bOzH4pot5Tq7jgQZv80o-1">
          <mxGeometry x="270" y="470" width="20" height="80" as="geometry" />
        </mxCell>
        <mxCell id="QUAg6ZB-ae-JOw2iht7_-54" value="" style="line;strokeWidth=2;html=1;labelBackgroundColor=#99CCFF;labelBorderColor=default;fontSize=17;" vertex="1" parent="bOzH4pot5Tq7jgQZv80o-1">
          <mxGeometry x="305" y="460" width="30" height="10" as="geometry" />
        </mxCell>
        <mxCell id="QUAg6ZB-ae-JOw2iht7_-55" value="" style="endArrow=none;html=1;rounded=0;fontSize=17;" edge="1" parent="bOzH4pot5Tq7jgQZv80o-1" target="QUAg6ZB-ae-JOw2iht7_-54">
          <mxGeometry width="50" height="50" relative="1" as="geometry">
            <mxPoint x="320" y="560" as="sourcePoint" />
            <mxPoint x="320" y="400" as="targetPoint" />
          </mxGeometry>
        </mxCell>
        <mxCell id="QUAg6ZB-ae-JOw2iht7_-56" value="New offset is added to volatile memory index. Incase of a previous offset, the slot at previous slot is invalidated similar to remove operation&amp;nbsp;" style="text;html=1;strokeColor=none;fillColor=none;align=center;verticalAlign=middle;whiteSpace=wrap;rounded=0;labelBorderColor=default;fontSize=17;labelBackgroundColor=#99CCFF;" vertex="1" parent="bOzH4pot5Tq7jgQZv80o-1">
          <mxGeometry x="-40" y="500" width="300" height="30" as="geometry" />
        </mxCell>
        <mxCell id="QUAg6ZB-ae-JOw2iht7_-58" value="" style="shape=crossbar;whiteSpace=wrap;html=1;rounded=1;direction=south;labelBackgroundColor=none;labelBorderColor=#33FF33;fontSize=17;fontColor=#FF9933;" vertex="1" parent="bOzH4pot5Tq7jgQZv80o-1">
          <mxGeometry x="400" y="200" width="20" height="360" as="geometry" />
        </mxCell>
        <mxCell id="QUAg6ZB-ae-JOw2iht7_-59" value="&lt;font color=&quot;#000000&quot;&gt;Unique Lock&lt;/font&gt;" style="text;html=1;strokeColor=none;fillColor=none;align=center;verticalAlign=middle;whiteSpace=wrap;rounded=0;labelBackgroundColor=none;labelBorderColor=#33FF33;fontSize=17;fontColor=#FF9933;" vertex="1" parent="bOzH4pot5Tq7jgQZv80o-1">
          <mxGeometry x="380" y="270" width="60" height="30" as="geometry" />
        </mxCell>
        <mxCell id="QUAg6ZB-ae-JOw2iht7_-60" value="&lt;font color=&quot;#000000&quot;&gt;Lock Released&lt;/font&gt;" style="text;html=1;strokeColor=none;fillColor=none;align=center;verticalAlign=middle;whiteSpace=wrap;rounded=0;labelBackgroundColor=none;labelBorderColor=#33FF33;fontSize=17;fontColor=#FF9933;" vertex="1" parent="bOzH4pot5Tq7jgQZv80o-1">
          <mxGeometry x="371" y="570" width="86" height="30" as="geometry" />
        </mxCell>
        <mxCell id="QeWMO5I5Hsl7-kJJO-rd-1" value="" style="line;strokeWidth=2;html=1;labelBackgroundColor=#99CCFF;labelBorderColor=default;fontSize=17;" vertex="1" parent="bOzH4pot5Tq7jgQZv80o-1">
          <mxGeometry x="395" y="220" width="30" height="10" as="geometry" />
        </mxCell>
        <mxCell id="QeWMO5I5Hsl7-kJJO-rd-0" value="" style="line;strokeWidth=2;html=1;labelBackgroundColor=#99CCFF;labelBorderColor=default;fontSize=17;" vertex="1" parent="bOzH4pot5Tq7jgQZv80o-1">
          <mxGeometry x="305" y="220" width="30" height="10" as="geometry" />
        </mxCell>
        <mxCell id="QeWMO5I5Hsl7-kJJO-rd-6" value="" style="endArrow=none;html=1;rounded=0;fontSize=17;startArrow=none;" edge="1" parent="bOzH4pot5Tq7jgQZv80o-1" source="QUAg6ZB-ae-JOw2iht7_-35" target="QeWMO5I5Hsl7-kJJO-rd-0">
          <mxGeometry width="50" height="50" relative="1" as="geometry">
            <mxPoint x="320" y="310" as="sourcePoint" />
            <mxPoint x="320" y="160" as="targetPoint" />
          </mxGeometry>
        </mxCell>
        <mxCell id="QeWMO5I5Hsl7-kJJO-rd-7" value="&lt;font color=&quot;#000000&quot;&gt;Lock Acquired&lt;/font&gt;" style="text;html=1;strokeColor=none;fillColor=none;align=center;verticalAlign=middle;whiteSpace=wrap;rounded=0;labelBackgroundColor=none;labelBorderColor=#33FF33;fontSize=17;fontColor=#FF9933;" vertex="1" parent="bOzH4pot5Tq7jgQZv80o-1">
          <mxGeometry x="304" y="210" width="146" height="30" as="geometry" />
        </mxCell>
      </root>
    </mxGraphModel>
  </diagram>
  <diagram id="ETzW9tL8Ju5p9ZGDqVlE" name="Page-4">
    <mxGraphModel dx="2125" dy="776" grid="1" gridSize="10" guides="1" tooltips="1" connect="1" arrows="1" fold="1" page="1" pageScale="1" pageWidth="827" pageHeight="1169" math="0" shadow="0">
      <root>
        <mxCell id="YgZoidRnSRwz7L7sZ9Dw-0" />
        <mxCell id="YgZoidRnSRwz7L7sZ9Dw-1" parent="YgZoidRnSRwz7L7sZ9Dw-0" />
        <mxCell id="YgZoidRnSRwz7L7sZ9Dw-2" value="" style="endArrow=none;html=1;rounded=0;fontSize=17;startArrow=none;" edge="1" parent="YgZoidRnSRwz7L7sZ9Dw-1" source="YgZoidRnSRwz7L7sZ9Dw-17">
          <mxGeometry width="50" height="50" relative="1" as="geometry">
            <mxPoint x="320" y="450" as="sourcePoint" />
            <mxPoint x="320" y="120" as="targetPoint" />
          </mxGeometry>
        </mxCell>
        <mxCell id="YgZoidRnSRwz7L7sZ9Dw-3" value="" style="endArrow=none;html=1;rounded=0;fontSize=17;startArrow=none;" edge="1" parent="YgZoidRnSRwz7L7sZ9Dw-1">
          <mxGeometry width="50" height="50" relative="1" as="geometry">
            <mxPoint x="520" y="190" as="sourcePoint" />
            <mxPoint x="520" y="120" as="targetPoint" />
          </mxGeometry>
        </mxCell>
        <mxCell id="YgZoidRnSRwz7L7sZ9Dw-4" value="Remove Key" style="text;html=1;strokeColor=none;fillColor=none;align=center;verticalAlign=middle;whiteSpace=wrap;rounded=0;fontSize=17;labelBorderColor=default;labelBackgroundColor=#99CCFF;" vertex="1" parent="YgZoidRnSRwz7L7sZ9Dw-1">
          <mxGeometry x="170" y="120" width="140" height="30" as="geometry" />
        </mxCell>
        <mxCell id="YgZoidRnSRwz7L7sZ9Dw-5" value="Foreground Thread" style="text;html=1;strokeColor=none;fillColor=none;align=center;verticalAlign=middle;whiteSpace=wrap;rounded=0;labelBorderColor=default;fontSize=17;labelBackgroundColor=#99CCFF;" vertex="1" parent="YgZoidRnSRwz7L7sZ9Dw-1">
          <mxGeometry x="250" y="50" width="140" height="30" as="geometry" />
        </mxCell>
        <mxCell id="YgZoidRnSRwz7L7sZ9Dw-6" value="Background Thread" style="text;html=1;strokeColor=none;fillColor=none;align=center;verticalAlign=middle;whiteSpace=wrap;rounded=0;labelBorderColor=default;fontSize=17;labelBackgroundColor=#FFFF99;" vertex="1" parent="YgZoidRnSRwz7L7sZ9Dw-1">
          <mxGeometry x="450" y="50" width="140" height="30" as="geometry" />
        </mxCell>
        <mxCell id="YgZoidRnSRwz7L7sZ9Dw-8" value="LogRemove(offset)" style="text;html=1;strokeColor=none;fillColor=none;align=center;verticalAlign=middle;whiteSpace=wrap;rounded=0;labelBorderColor=default;fontSize=17;labelBackgroundColor=#99CCFF;" vertex="1" parent="YgZoidRnSRwz7L7sZ9Dw-1">
          <mxGeometry x="305" y="300" width="260" height="30" as="geometry" />
        </mxCell>
        <mxCell id="YgZoidRnSRwz7L7sZ9Dw-10" value="" style="line;strokeWidth=2;html=1;labelBackgroundColor=#99CCFF;labelBorderColor=default;fontSize=17;" vertex="1" parent="YgZoidRnSRwz7L7sZ9Dw-1">
          <mxGeometry x="505" y="450" width="30" height="10" as="geometry" />
        </mxCell>
        <mxCell id="YgZoidRnSRwz7L7sZ9Dw-11" value="" style="endArrow=none;html=1;rounded=0;fontSize=17;startArrow=none;" edge="1" parent="YgZoidRnSRwz7L7sZ9Dw-1" source="YgZoidRnSRwz7L7sZ9Dw-26" target="YgZoidRnSRwz7L7sZ9Dw-10">
          <mxGeometry width="50" height="50" relative="1" as="geometry">
            <mxPoint x="520" y="450" as="sourcePoint" />
            <mxPoint x="520" y="120" as="targetPoint" />
          </mxGeometry>
        </mxCell>
        <mxCell id="YgZoidRnSRwz7L7sZ9Dw-13" value="" style="endArrow=none;html=1;rounded=0;fontSize=17;startArrow=none;" edge="1" parent="YgZoidRnSRwz7L7sZ9Dw-1" source="YgZoidRnSRwz7L7sZ9Dw-10">
          <mxGeometry width="50" height="50" relative="1" as="geometry">
            <mxPoint x="520" y="230" as="sourcePoint" />
            <mxPoint x="520" y="190" as="targetPoint" />
          </mxGeometry>
        </mxCell>
        <mxCell id="YgZoidRnSRwz7L7sZ9Dw-15" value="" style="shape=curlyBracket;whiteSpace=wrap;html=1;rounded=1;flipH=1;labelBackgroundColor=#99CCFF;labelBorderColor=default;fontSize=17;" vertex="1" parent="YgZoidRnSRwz7L7sZ9Dw-1">
          <mxGeometry x="550" y="360" width="20" height="100" as="geometry" />
        </mxCell>
        <mxCell id="YgZoidRnSRwz7L7sZ9Dw-16" value="Write invalid code to offset in PM and commit" style="text;html=1;strokeColor=none;fillColor=none;align=center;verticalAlign=middle;whiteSpace=wrap;rounded=0;labelBackgroundColor=#FFFF99;labelBorderColor=default;fontSize=17;" vertex="1" parent="YgZoidRnSRwz7L7sZ9Dw-1">
          <mxGeometry x="580" y="385" width="160" height="60" as="geometry" />
        </mxCell>
        <mxCell id="YgZoidRnSRwz7L7sZ9Dw-17" value="" style="line;strokeWidth=2;html=1;labelBackgroundColor=#99CCFF;labelBorderColor=default;fontSize=17;" vertex="1" parent="YgZoidRnSRwz7L7sZ9Dw-1">
          <mxGeometry x="305" y="150" width="30" height="10" as="geometry" />
        </mxCell>
        <mxCell id="YgZoidRnSRwz7L7sZ9Dw-18" value="" style="endArrow=none;html=1;rounded=0;fontSize=17;startArrow=none;" edge="1" parent="YgZoidRnSRwz7L7sZ9Dw-1" source="YgZoidRnSRwz7L7sZ9Dw-19" target="YgZoidRnSRwz7L7sZ9Dw-17">
          <mxGeometry width="50" height="50" relative="1" as="geometry">
            <mxPoint x="320" y="450" as="sourcePoint" />
            <mxPoint x="320" y="120" as="targetPoint" />
          </mxGeometry>
        </mxCell>
        <mxCell id="YgZoidRnSRwz7L7sZ9Dw-19" value="" style="line;strokeWidth=2;html=1;labelBackgroundColor=#99CCFF;labelBorderColor=default;fontSize=17;" vertex="1" parent="YgZoidRnSRwz7L7sZ9Dw-1">
          <mxGeometry x="305" y="310" width="30" height="10" as="geometry" />
        </mxCell>
        <mxCell id="YgZoidRnSRwz7L7sZ9Dw-20" value="" style="endArrow=none;html=1;rounded=0;fontSize=17;startArrow=none;" edge="1" parent="YgZoidRnSRwz7L7sZ9Dw-1" source="YgZoidRnSRwz7L7sZ9Dw-28" target="YgZoidRnSRwz7L7sZ9Dw-19">
          <mxGeometry width="50" height="50" relative="1" as="geometry">
            <mxPoint x="320" y="450" as="sourcePoint" />
            <mxPoint x="320" y="160" as="targetPoint" />
          </mxGeometry>
        </mxCell>
        <mxCell id="YgZoidRnSRwz7L7sZ9Dw-21" value="" style="shape=curlyBracket;whiteSpace=wrap;html=1;rounded=1;labelBackgroundColor=#FFFF99;labelBorderColor=default;fontSize=17;" vertex="1" parent="YgZoidRnSRwz7L7sZ9Dw-1">
          <mxGeometry x="270" y="155" width="20" height="165" as="geometry" />
        </mxCell>
        <mxCell id="YgZoidRnSRwz7L7sZ9Dw-22" value="Find slot offset for the key in volatile index, return if not present" style="text;html=1;strokeColor=none;fillColor=none;align=center;verticalAlign=middle;whiteSpace=wrap;rounded=0;fontSize=17;labelBorderColor=default;labelBackgroundColor=#99CCFF;" vertex="1" parent="YgZoidRnSRwz7L7sZ9Dw-1">
          <mxGeometry x="88.75" y="200" width="180" height="70" as="geometry" />
        </mxCell>
        <mxCell id="YgZoidRnSRwz7L7sZ9Dw-26" value="" style="line;strokeWidth=2;html=1;labelBackgroundColor=#99CCFF;labelBorderColor=default;fontSize=17;" vertex="1" parent="YgZoidRnSRwz7L7sZ9Dw-1">
          <mxGeometry x="505" y="360" width="30" height="10" as="geometry" />
        </mxCell>
        <mxCell id="YgZoidRnSRwz7L7sZ9Dw-27" value="" style="endArrow=none;html=1;rounded=0;fontSize=17;startArrow=none;" edge="1" parent="YgZoidRnSRwz7L7sZ9Dw-1" target="YgZoidRnSRwz7L7sZ9Dw-26" source="YgZoidRnSRwz7L7sZ9Dw-46">
          <mxGeometry width="50" height="50" relative="1" as="geometry">
            <mxPoint x="520" y="560" as="sourcePoint" />
            <mxPoint x="520" y="250" as="targetPoint" />
          </mxGeometry>
        </mxCell>
        <mxCell id="YgZoidRnSRwz7L7sZ9Dw-28" value="" style="line;strokeWidth=2;html=1;labelBackgroundColor=#99CCFF;labelBorderColor=default;fontSize=17;" vertex="1" parent="YgZoidRnSRwz7L7sZ9Dw-1">
          <mxGeometry x="305" y="370" width="30" height="10" as="geometry" />
        </mxCell>
        <mxCell id="YgZoidRnSRwz7L7sZ9Dw-29" value="" style="endArrow=none;html=1;rounded=0;fontSize=17;startArrow=none;" edge="1" parent="YgZoidRnSRwz7L7sZ9Dw-1" source="YgZoidRnSRwz7L7sZ9Dw-35" target="YgZoidRnSRwz7L7sZ9Dw-28">
          <mxGeometry width="50" height="50" relative="1" as="geometry">
            <mxPoint x="320" y="520" as="sourcePoint" />
            <mxPoint x="320" y="320" as="targetPoint" />
          </mxGeometry>
        </mxCell>
        <mxCell id="YgZoidRnSRwz7L7sZ9Dw-30" value="Remove from volatile index" style="text;html=1;strokeColor=none;fillColor=none;align=center;verticalAlign=middle;whiteSpace=wrap;rounded=0;labelBorderColor=default;fontSize=17;labelBackgroundColor=#99CCFF;" vertex="1" parent="YgZoidRnSRwz7L7sZ9Dw-1">
          <mxGeometry x="106.25" y="360" width="147.5" height="150" as="geometry" />
        </mxCell>
        <mxCell id="YgZoidRnSRwz7L7sZ9Dw-33" value="" style="shape=curlyBracket;whiteSpace=wrap;html=1;rounded=1;labelBackgroundColor=#FFFF99;labelBorderColor=default;fontSize=17;" vertex="1" parent="YgZoidRnSRwz7L7sZ9Dw-1">
          <mxGeometry x="270" y="380" width="20" height="100" as="geometry" />
        </mxCell>
        <mxCell id="YgZoidRnSRwz7L7sZ9Dw-35" value="" style="line;strokeWidth=2;html=1;labelBackgroundColor=#99CCFF;labelBorderColor=default;fontSize=17;" vertex="1" parent="YgZoidRnSRwz7L7sZ9Dw-1">
          <mxGeometry x="305" y="480" width="30" height="10" as="geometry" />
        </mxCell>
        <mxCell id="YgZoidRnSRwz7L7sZ9Dw-36" value="" style="endArrow=none;html=1;rounded=0;fontSize=17;startArrow=none;" edge="1" parent="YgZoidRnSRwz7L7sZ9Dw-1" target="YgZoidRnSRwz7L7sZ9Dw-35" source="YgZoidRnSRwz7L7sZ9Dw-51">
          <mxGeometry width="50" height="50" relative="1" as="geometry">
            <mxPoint x="320" y="560" as="sourcePoint" />
            <mxPoint x="320" y="400" as="targetPoint" />
          </mxGeometry>
        </mxCell>
        <mxCell id="YgZoidRnSRwz7L7sZ9Dw-38" value="" style="shape=crossbar;whiteSpace=wrap;html=1;rounded=1;direction=south;labelBackgroundColor=none;labelBorderColor=#33FF33;fontSize=17;fontColor=#FF9933;" vertex="1" parent="YgZoidRnSRwz7L7sZ9Dw-1">
          <mxGeometry x="400" y="370" width="20" height="190" as="geometry" />
        </mxCell>
        <mxCell id="YgZoidRnSRwz7L7sZ9Dw-39" value="&lt;font color=&quot;#000000&quot;&gt;Unique Lock&lt;/font&gt;" style="text;html=1;strokeColor=none;fillColor=none;align=center;verticalAlign=middle;whiteSpace=wrap;rounded=0;labelBackgroundColor=none;labelBorderColor=#33FF33;fontSize=17;fontColor=#FF9933;" vertex="1" parent="YgZoidRnSRwz7L7sZ9Dw-1">
          <mxGeometry x="380" y="390" width="60" height="30" as="geometry" />
        </mxCell>
        <mxCell id="YgZoidRnSRwz7L7sZ9Dw-40" value="&lt;font color=&quot;#000000&quot;&gt;Lock Released&lt;/font&gt;" style="text;html=1;strokeColor=none;fillColor=none;align=center;verticalAlign=middle;whiteSpace=wrap;rounded=0;labelBackgroundColor=none;labelBorderColor=#33FF33;fontSize=17;fontColor=#FF9933;" vertex="1" parent="YgZoidRnSRwz7L7sZ9Dw-1">
          <mxGeometry x="371" y="570" width="86" height="30" as="geometry" />
        </mxCell>
        <mxCell id="YgZoidRnSRwz7L7sZ9Dw-42" value="" style="endArrow=classic;html=1;rounded=0;fontSize=17;fontColor=#000000;" edge="1" parent="YgZoidRnSRwz7L7sZ9Dw-1">
          <mxGeometry width="50" height="50" relative="1" as="geometry">
            <mxPoint x="320" y="320" as="sourcePoint" />
            <mxPoint x="520" y="370" as="targetPoint" />
          </mxGeometry>
        </mxCell>
        <mxCell id="YgZoidRnSRwz7L7sZ9Dw-44" value="Add offset to Free Slots Queue" style="text;html=1;strokeColor=none;fillColor=none;align=center;verticalAlign=middle;whiteSpace=wrap;rounded=0;labelBackgroundColor=#FFFF99;labelBorderColor=default;fontSize=17;" vertex="1" parent="YgZoidRnSRwz7L7sZ9Dw-1">
          <mxGeometry x="580" y="460" width="160" height="60" as="geometry" />
        </mxCell>
        <mxCell id="YgZoidRnSRwz7L7sZ9Dw-45" value="" style="shape=curlyBracket;whiteSpace=wrap;html=1;rounded=1;flipH=1;labelBackgroundColor=#99CCFF;labelBorderColor=default;fontSize=17;" vertex="1" parent="YgZoidRnSRwz7L7sZ9Dw-1">
          <mxGeometry x="550" y="460" width="20" height="60" as="geometry" />
        </mxCell>
        <mxCell id="YgZoidRnSRwz7L7sZ9Dw-46" value="" style="line;strokeWidth=2;html=1;labelBackgroundColor=#99CCFF;labelBorderColor=default;fontSize=17;" vertex="1" parent="YgZoidRnSRwz7L7sZ9Dw-1">
          <mxGeometry x="505" y="510" width="30" height="10" as="geometry" />
        </mxCell>
        <mxCell id="YgZoidRnSRwz7L7sZ9Dw-47" value="" style="endArrow=none;html=1;rounded=0;fontSize=17;" edge="1" parent="YgZoidRnSRwz7L7sZ9Dw-1" target="YgZoidRnSRwz7L7sZ9Dw-46">
          <mxGeometry width="50" height="50" relative="1" as="geometry">
            <mxPoint x="520" y="560" as="sourcePoint" />
            <mxPoint x="520" y="370" as="targetPoint" />
          </mxGeometry>
        </mxCell>
        <mxCell id="YgZoidRnSRwz7L7sZ9Dw-51" value="" style="line;strokeWidth=2;html=1;labelBackgroundColor=#99CCFF;labelBorderColor=default;fontSize=17;" vertex="1" parent="YgZoidRnSRwz7L7sZ9Dw-1">
          <mxGeometry x="305" y="530" width="30" height="10" as="geometry" />
        </mxCell>
        <mxCell id="YgZoidRnSRwz7L7sZ9Dw-52" value="" style="endArrow=none;html=1;rounded=0;fontSize=17;" edge="1" parent="YgZoidRnSRwz7L7sZ9Dw-1" target="YgZoidRnSRwz7L7sZ9Dw-51">
          <mxGeometry width="50" height="50" relative="1" as="geometry">
            <mxPoint x="320" y="560" as="sourcePoint" />
            <mxPoint x="320" y="490" as="targetPoint" />
          </mxGeometry>
        </mxCell>
        <mxCell id="YgZoidRnSRwz7L7sZ9Dw-55" value="" style="endArrow=classic;html=1;rounded=0;fontSize=17;fontColor=#000000;entryX=0.5;entryY=0.7;entryDx=0;entryDy=0;entryPerimeter=0;" edge="1" parent="YgZoidRnSRwz7L7sZ9Dw-1" target="YgZoidRnSRwz7L7sZ9Dw-51">
          <mxGeometry width="50" height="50" relative="1" as="geometry">
            <mxPoint x="520" y="520" as="sourcePoint" />
            <mxPoint x="440" y="430" as="targetPoint" />
          </mxGeometry>
        </mxCell>
        <mxCell id="YgZoidRnSRwz7L7sZ9Dw-56" value="LogRemoveWait()" style="text;html=1;strokeColor=none;fillColor=none;align=center;verticalAlign=middle;whiteSpace=wrap;rounded=0;labelBorderColor=default;fontSize=17;labelBackgroundColor=#99CCFF;" vertex="1" parent="YgZoidRnSRwz7L7sZ9Dw-1">
          <mxGeometry x="-50" y="490" width="260" height="30" as="geometry" />
        </mxCell>
        <mxCell id="YgZoidRnSRwz7L7sZ9Dw-57" value="" style="shape=curlyBracket;whiteSpace=wrap;html=1;rounded=1;labelBackgroundColor=#FFFF99;labelBorderColor=default;fontSize=17;" vertex="1" parent="YgZoidRnSRwz7L7sZ9Dw-1">
          <mxGeometry x="270" y="480" width="20" height="50" as="geometry" />
        </mxCell>
        <mxCell id="YgZoidRnSRwz7L7sZ9Dw-58" value="SpinLock" style="text;html=1;strokeColor=none;fillColor=none;align=center;verticalAlign=middle;whiteSpace=wrap;rounded=0;labelBorderColor=default;fontSize=17;labelBackgroundColor=#99CCFF;" vertex="1" parent="YgZoidRnSRwz7L7sZ9Dw-1">
          <mxGeometry x="152.5" y="485" width="147.5" height="40" as="geometry" />
        </mxCell>
        <mxCell id="YgZoidRnSRwz7L7sZ9Dw-60" value="" style="shape=curlyBracket;whiteSpace=wrap;html=1;rounded=1;labelBackgroundColor=#FFFF99;labelBorderColor=default;fontSize=17;" vertex="1" parent="YgZoidRnSRwz7L7sZ9Dw-1">
          <mxGeometry x="160" y="480" width="20" height="60" as="geometry" />
        </mxCell>
      </root>
    </mxGraphModel>
  </diagram>
</mxfile>
